<svg xmlns="http://www.w3.org/2000/svg" width="1053" height="374" viewBox="0 0 1053 374">
  <g fill="none" fill-rule="evenodd">
    <path fill="#3C444F" fill-rule="nonzero" d="M552.9 123a6.5 6.5 0 1 0-9.3 9l47 47H435.6a6.5 6.5 0 1 0 0 13h155.2l-47 46.8a6.6 6.6 0 0 0 0 9.3 6.5 6.5 0 0 0 9.2 0l58.2-58a6.4 6.4 0 0 0 0-9.2l-58.2-58z"/>
    <path fill="#FFE42F" d="M677-2h376v376H677z"/>
    <path fill="#3C444F" d="M780.4 253H838v17.3h-39v15.9h36.8v17.2h-36.8v17.3h41.1V338h-59.8v-85zm117.5 20.8c-1.5-2-3.6-3.3-6.2-4.3-2.6-.9-5-1.3-7.4-1.3a19.3 19.3 0 0 0-8.2 2 8.9 8.9 0 0 0-3.2 2.6 6.8 6.8 0 0 0-1.2 4.1c0 2.6 1 4.5 3 5.9 1.8 1.4 4.3 2.5 7.2 3.5 2.9 1 6 1.9 9.4 2.9 3.4 1 6.5 2.3 9.4 4 3 1.8 5.4 4.2 7.3 7.1 1.9 3 2.9 7 2.9 11.9 0 4.7-1 8.8-2.7 12.4a25 25 0 0 1-7.1 8.7c-3 2.3-6.5 4-10.5 5.2a45.9 45.9 0 0 1-27.9-.9 38.5 38.5 0 0 1-13.2-8.1l13.4-14.7c1.9 2.6 4.3 4.6 7.2 6a20.7 20.7 0 0 0 13.7 1.5c1.6-.3 3-.9 4.2-1.6a9 9 0 0 0 3-2.7 6.9 6.9 0 0 0 1.1-4c0-2.6-1-4.6-3-6-1.9-1.5-4.3-2.8-7.3-3.8l-9.6-3.2c-3.4-1-6.6-2.4-9.6-4.2a20 20 0 0 1-10.3-18.4 25.5 25.5 0 0 1 9.9-20.6c3-2.3 6.5-4 10.4-5.2a47.7 47.7 0 0 1 26 .3c4.5 1.4 8.5 3.7 12.1 6.9l-12.8 14zm27.5-20.8h28.3l19.6 55.5h.2l19.7-55.5h28.2v85h-18.7v-65.2h-.2L980 338H966l-21.5-65.2h-.3V338h-18.7v-85z"/>
    <g>
      <path fill="#EF8A35" d="M-1-2h376v376H-1z"/>
      <path fill="#3C444F" d="M200.2 275.1c-1.8-2.2-4.1-4-6.8-5.1a22.6 22.6 0 0 0-9.3-1.8 23.4 23.4 0 0 0-17.6 7.7c-2.2 2.4-3.9 5.3-5.1 8.7-1.3 3.4-1.9 7-1.9 11s.6 7.6 1.9 10.9c1.2 3.3 3 6.2 5 8.6a23.1 23.1 0 0 0 17.1 7.8 20.3 20.3 0 0 0 17.5-9.1l15.6 11.6c-3.6 5-8.1 8.8-13.6 11.2a42.3 42.3 0 0 1-17 3.6c-6.7 0-12.8-1-18.4-3.2a40.5 40.5 0 0 1-24-23 48 48 0 0 1-3.5-18.5 48 48 0 0 1 3.4-18.5 40.5 40.5 0 0 1 24-23 52.3 52.3 0 0 1 26-2.5 40.5 40.5 0 0 1 14.9 6c2.3 1.6 4.4 3.5 6.2 5.9L200.2 275zm71.2 34.5c0 3.9-.3 7.7-1 11.4-.7 3.6-2 6.9-4 9.7-1.8 2.9-4.6 5.2-8.1 6.9a32.3 32.3 0 0 1-14 2.6c-6.7 0-12.4-1.6-17-4.8a22.7 22.7 0 0 1-9-15l17.1-4.2a8 8 0 0 0 2.8 5.2 8.2 8.2 0 0 0 5.6 2.2c2.2 0 3.9-.5 5-1.6 1.3-1.1 2.1-2.4 2.7-4 .6-1.6.9-3.4 1-5.3l.2-5.2V253h18.7v56.6zm58.7-35.8c-1.5-2-3.5-3.3-6.1-4.3-2.6-.9-5.1-1.3-7.4-1.3a19.3 19.3 0 0 0-8.3 2 8.9 8.9 0 0 0-3.1 2.6 6.8 6.8 0 0 0-1.2 4.1c0 2.6 1 4.5 2.9 5.9 1.9 1.4 4.3 2.5 7.2 3.5l9.4 2.9c3.4 1 6.5 2.3 9.5 4 2.9 1.8 5.3 4.2 7.2 7.1 2 3 2.9 7 2.9 11.9a25 25 0 0 1-9.8 21.1c-3 2.3-6.5 4-10.4 5.2a45.9 45.9 0 0 1-28-.9 38.5 38.5 0 0 1-13.1-8.1l13.3-14.7a20.7 20.7 0 0 0 21 7.5c1.5-.3 2.9-.9 4.1-1.6a9 9 0 0 0 3-2.7 6.9 6.9 0 0 0 1.2-4c0-2.6-1-4.6-3-6-2-1.5-4.4-2.8-7.3-3.8l-9.6-3.2c-3.5-1-6.7-2.4-9.6-4.2a20 20 0 0 1-10.3-18.4 25.5 25.5 0 0 1 9.8-20.6c3-2.3 6.5-4 10.4-5.2a47.7 47.7 0 0 1 26 .3c4.5 1.4 8.6 3.7 12.2 6.9l-12.9 14z"/>
    </g>
  </g>
</svg>
